<svg width="38" height="38" viewBox="0 0 38 38" fill="none" xmlns="http://www.w3.org/2000/svg">
<path d="M37.99 18.9629C37.99 20.2988 37.0004 21.3453 35.8787 21.3453H33.7675L33.8136 33.2352C33.8136 33.4355 33.8004 33.6359 33.7807 33.8363V35.0312C33.7807 36.6715 32.5996 38 31.1415 38H30.0859C30.0133 38 29.9407 38 29.8682 37.9926C29.7758 38 29.6834 38 29.5911 38H27.4468H25.8633C24.4052 38 23.2242 36.6715 23.2242 35.0312V33.25V28.5C23.2242 27.1863 22.2807 26.125 21.1129 26.125H16.8903C15.7225 26.125 14.779 27.1863 14.779 28.5V33.25V35.0312C14.779 36.6715 13.598 38 12.1399 38H10.5565H8.45176C8.35279 38 8.25383 37.9926 8.15486 37.9852C8.07569 37.9926 7.99651 38 7.91734 38H6.86169C5.40358 38 4.22258 36.6715 4.22258 35.0312V26.7188C4.22258 26.652 4.22258 26.5777 4.22918 26.5109V21.3453H2.11129C0.92369 21.3453 0 20.3062 0 18.9629C0 18.2949 0.197933 17.7012 0.659778 17.1816L17.5765 0.59375C18.0383 0.0742188 18.5662 0 19.028 0C19.4899 0 20.0177 0.148438 20.4135 0.519531L37.2643 17.1816C37.7921 17.7012 38.056 18.2949 37.99 18.9629Z" fill="black"/>
</svg>
